<?xml version="1.0" encoding="UTF-8"?>
<svg width="137px" height="137px" viewBox="0 0 137 137" version="1.1" xmlns="http://www.w3.org/2000/svg" xmlns:xlink="http://www.w3.org/1999/xlink">
    <!-- Generator: Sketch 43.2 (39069) - http://www.bohemiancoding.com/sketch -->
    <title>Logo</title>
    <desc>Created with Sketch.</desc>
    <defs></defs>
    <g id="Page-1" stroke="none" stroke-width="1" fill="none" fill-rule="evenodd">
        <g id="Homepage" transform="translate(-615.000000, -127.000000)">
            <g id="logo-black-copy-2" transform="translate(627.000000, 127.000000)">
                <ellipse id="Oval-2" fill="#191923" cx="56" cy="81.2239186" rx="42.7" ry="42.5292621"></ellipse>
                <rect id="Rectangle" fill="#191923" x="0" y="0" width="30.45" height="96.9109415" rx="15.225"></rect>
                <path d="M75.8562,57.7592697 C75.3276974,58.6014928 74.7727779,59.2331506 74.191425,59.6542621 C73.6100721,60.0753736 72.8613712,60.2859262 71.9453,60.2859262 C71.1349293,60.2859262 70.262913,60.0315085 69.329225,59.5226654 C68.395537,59.0138223 67.3385476,58.4435757 66.158225,57.8119084 C64.9779024,57.1802411 63.6302409,56.6099945 62.1152,56.1011514 C60.6001591,55.5923083 58.873743,55.3378906 56.9359,55.3378906 C53.5887166,55.3378906 51.0959832,56.0485056 49.457625,57.469757 C47.8192668,58.8910084 47.0001,60.8123009 47.0001,63.2336921 C47.0001,64.7777677 47.4933617,66.0586293 48.4799,67.0763155 C49.4664383,68.0940017 50.7612503,68.9713042 52.364375,69.7082494 C53.9674997,70.4451945 55.7996147,71.1207175 57.860775,71.7348384 C59.9219353,72.3489594 62.0271059,73.0332553 64.17635,73.7877468 C66.3255941,74.5422383 68.4307647,75.4283138 70.491925,76.446 C72.5530853,77.4636862 74.3852003,78.7620939 75.988325,80.3412621 C77.5914497,81.9204303 78.8862617,83.8417228 79.8728,86.1051972 C80.8593383,88.3686716 81.3526,91.0970824 81.3526,94.2905115 C81.3526,97.8348667 80.7360228,101.15107 79.50285,104.239221 C78.2696772,107.327373 76.4816034,110.020691 74.138575,112.319258 C71.7955466,114.617825 68.9064422,116.425068 65.471175,117.741042 C62.0359078,119.057015 58.1338552,119.714992 53.7649,119.714992 C51.3690214,119.714992 48.9291374,119.469348 46.445175,118.978051 C43.9612126,118.486754 41.5565616,117.793685 39.23115,116.898823 C36.9057384,116.003961 34.7212936,114.942425 32.67775,113.714183 C30.6342064,112.485941 28.8549409,111.117349 27.3399,109.608366 L32.6249,101.291455 C33.0124686,100.659788 33.5585798,100.150953 34.26325,99.7649338 C34.9679202,99.3789149 35.7254293,99.1859084 36.5358,99.1859084 C37.5928053,99.1859084 38.658603,99.5192833 39.733225,100.186043 C40.807847,100.852803 42.0233849,101.589737 43.379875,102.396868 C44.7363651,103.203998 46.2954245,103.940932 48.0571,104.607692 C49.8187755,105.274452 51.8975214,105.607827 54.2934,105.607827 C57.5348829,105.607827 60.054041,104.897212 61.85095,103.475961 C63.647859,102.054709 64.5463,99.8000417 64.5463,96.7118906 C64.5463,94.9221666 64.0530383,93.4658445 63.0665,92.3428804 C62.0799617,91.2199164 60.7851497,90.2899757 59.182025,89.5530305 C57.5789003,88.8160854 55.7555936,88.1668815 53.71205,87.6053995 C51.6685064,87.0439175 49.5721441,86.4210327 47.4229,85.7367265 C45.2736559,85.0524202 43.1772936,84.2102098 41.13375,83.21007 C39.0902064,82.2099301 37.2668997,80.8939764 35.663775,79.2621692 C34.0606503,77.6303621 32.7658383,75.5950203 31.7793,73.1560827 C30.7927617,70.7171451 30.2995,67.7079975 30.2995,64.1285496 C30.2995,61.2509542 30.8808442,58.4435862 32.04355,55.7063613 C33.2062558,52.9691364 34.9150554,50.5302355 37.17,48.3895852 C39.4249446,46.248935 42.1907336,44.5381951 45.46745,43.2573142 C48.7441664,41.9764334 52.4964789,41.3360025 56.7245,41.3360025 C59.0851451,41.3360025 61.3840971,41.5202361 63.621425,41.8887087 C65.8587529,42.2571812 67.98154,42.8011088 69.98985,43.5205076 C71.99816,44.2399065 73.8743163,45.0996629 75.618375,46.0998028 C77.3624337,47.0999427 78.9214931,48.2316629 80.2956,49.4949975 L75.8562,57.7592697 Z" id="S" fill="#FFFFFF"></path>
                <path d="M56,137 C25.072054,137 0,112.028198 0,81.2239186 C0,50.4196394 25.072054,25.4478372 56,25.4478372 C86.927946,25.4478372 112,50.4196394 112,81.2239186 C112,112.028198 86.927946,137 56,137 Z M56,116.083969 C75.3299662,116.083969 91,100.476593 91,81.2239186 C91,61.9712441 75.3299662,46.3638677 56,46.3638677 C36.6700338,46.3638677 21,61.9712441 21,81.2239186 C21,100.476593 36.6700338,116.083969 56,116.083969 Z" id="Combined-Shape" fill="#191923"></path>
                <rect id="Rectangle-2" fill="#191923" x="0" y="0" width="16.45" height="28.9338422"></rect>
            </g>
        </g>
    </g>
</svg>